<svg id="visual" viewBox="0 0 900 600" width="900" height="600" xmlns="http://www.w3.org/2000/svg" xmlns:xlink="http://www.w3.org/1999/xlink" version="1.1"><rect x="0" y="0" width="900" height="600" fill="#434343"></rect><path d="M0 406L21.5 400.8C43 395.7 86 385.3 128.8 392.3C171.7 399.3 214.3 423.7 257.2 421C300 418.3 343 388.7 385.8 379.2C428.7 369.7 471.3 380.3 514.2 391.3C557 402.3 600 413.7 642.8 415.8C685.7 418 728.3 411 771.2 407C814 403 857 402 878.5 401.5L900 401L900 601L878.5 601C857 601 814 601 771.2 601C728.3 601 685.7 601 642.8 601C600 601 557 601 514.2 601C471.3 601 428.7 601 385.8 601C343 601 300 601 257.2 601C214.3 601 171.7 601 128.8 601C86 601 43 601 21.5 601L0 601Z" fill="#6bc0a4"></path><path d="M0 450L21.5 441C43 432 86 414 128.8 417.5C171.7 421 214.3 446 257.2 457.5C300 469 343 467 385.8 460.3C428.7 453.7 471.3 442.3 514.2 434C557 425.7 600 420.3 642.8 425.8C685.7 431.3 728.3 447.7 771.2 449.3C814 451 857 438 878.5 431.5L900 425L900 601L878.5 601C857 601 814 601 771.2 601C728.3 601 685.7 601 642.8 601C600 601 557 601 514.2 601C471.3 601 428.7 601 385.8 601C343 601 300 601 257.2 601C214.3 601 171.7 601 128.8 601C86 601 43 601 21.5 601L0 601Z" fill="#54a68a"></path><path d="M0 475L21.5 471.7C43 468.3 86 461.7 128.8 460C171.7 458.3 214.3 461.7 257.2 462.7C300 463.7 343 462.3 385.8 460.2C428.7 458 471.3 455 514.2 461.7C557 468.3 600 484.7 642.8 489.7C685.7 494.7 728.3 488.3 771.2 478.3C814 468.3 857 454.7 878.5 447.8L900 441L900 601L878.5 601C857 601 814 601 771.2 601C728.3 601 685.7 601 642.8 601C600 601 557 601 514.2 601C471.3 601 428.7 601 385.8 601C343 601 300 601 257.2 601C214.3 601 171.7 601 128.8 601C86 601 43 601 21.5 601L0 601Z" fill="#3d8c71"></path><path d="M0 527L21.5 526.2C43 525.3 86 523.7 128.8 516.2C171.7 508.7 214.3 495.3 257.2 490.7C300 486 343 490 385.8 497.3C428.7 504.7 471.3 515.3 514.2 520.3C557 525.3 600 524.7 642.8 522.8C685.7 521 728.3 518 771.2 514.8C814 511.7 857 508.3 878.5 506.7L900 505L900 601L878.5 601C857 601 814 601 771.2 601C728.3 601 685.7 601 642.8 601C600 601 557 601 514.2 601C471.3 601 428.7 601 385.8 601C343 601 300 601 257.2 601C214.3 601 171.7 601 128.8 601C86 601 43 601 21.5 601L0 601Z" fill="#267458"></path><path d="M0 566L21.5 560C43 554 86 542 128.8 538.8C171.7 535.7 214.3 541.3 257.2 548C300 554.7 343 562.3 385.8 564.5C428.7 566.7 471.3 563.3 514.2 558.7C557 554 600 548 642.8 550.2C685.7 552.3 728.3 562.7 771.2 560.3C814 558 857 543 878.5 535.5L900 528L900 601L878.5 601C857 601 814 601 771.2 601C728.3 601 685.7 601 642.8 601C600 601 557 601 514.2 601C471.3 601 428.7 601 385.8 601C343 601 300 601 257.2 601C214.3 601 171.7 601 128.8 601C86 601 43 601 21.5 601L0 601Z" fill="#0a5c41"></path></svg>