<svg id="visual" viewBox="0 0 900 600" width="900" height="600" xmlns="http://www.w3.org/2000/svg" xmlns:xlink="http://www.w3.org/1999/xlink" version="1.1"><rect x="0" y="0" width="900" height="600" fill="#6bc0a4"></rect><path d="M0 119L21.5 125.5C43 132 86 145 128.8 149.5C171.7 154 214.3 150 257.2 141.8C300 133.7 343 121.3 385.8 113.5C428.7 105.7 471.3 102.3 514.2 97.7C557 93 600 87 642.8 100.7C685.7 114.3 728.3 147.7 771.2 147.5C814 147.3 857 113.7 878.5 96.8L900 80L900 0L878.5 0C857 0 814 0 771.2 0C728.3 0 685.7 0 642.8 0C600 0 557 0 514.2 0C471.3 0 428.7 0 385.8 0C343 0 300 0 257.2 0C214.3 0 171.7 0 128.8 0C86 0 43 0 21.5 0L0 0Z" fill="#0a5c41" stroke-linecap="round" stroke-linejoin="miter"></path></svg>